<svg version="1.1" xmlns="http://www.w3.org/2000/svg" xmlns:xlink="http://www.w3.org/1999/xlink" width="72.919921875" height="161"><defs/><g><g><rect fill="#ffffff" stroke="none" x="240" y="184" width="51.919921875" height="45" transform="matrix(1 0 0 1 -230 -174)"/></g><g><path fill="none" stroke="#000000" paint-order="fill stroke markers" d=" M 10 10 L 61.919921875 10 L 61.919921875 55 L 10 55 L 10 10 Z Z" stroke-miterlimit="10" stroke-dasharray=""/></g><g><path fill="none" stroke="#000000" paint-order="fill stroke markers" d=" M 10 35 L 62.919921875 35" stroke-miterlimit="10" stroke-dasharray=""/></g><g><path fill="none" stroke="#000000" paint-order="fill stroke markers" d=" M 10 45 L 62.919921875 45" stroke-miterlimit="10" stroke-dasharray=""/></g><g><g><path fill="none" stroke="none"/><text fill="#000000" stroke="none" font-family="Arial" font-size="13px" font-style="normal" font-weight="bold" text-decoration="undefined" x="266.4599609375" y="197.5" text-anchor="middle" dominant-baseline="central" transform="matrix(1 0 0 1 -230 -174)">Bird</text></g></g><g><rect fill="#ffffff" stroke="none" x="240" y="280" width="51.919921875" height="45" transform="matrix(1 0 0 1 -230 -174)"/></g><g><path fill="none" stroke="#000000" paint-order="fill stroke markers" d=" M 10 106 L 61.919921875 106 L 61.919921875 151 L 10 151 L 10 106 Z Z" stroke-miterlimit="10" stroke-dasharray=""/></g><g><path fill="none" stroke="#000000" paint-order="fill stroke markers" d=" M 10 131 L 62.919921875 131" stroke-miterlimit="10" stroke-dasharray=""/></g><g><path fill="none" stroke="#000000" paint-order="fill stroke markers" d=" M 10 141 L 62.919921875 141" stroke-miterlimit="10" stroke-dasharray=""/></g><g><g><path fill="none" stroke="none"/><text fill="#000000" stroke="none" font-family="Arial" font-size="13px" font-style="normal" font-weight="bold" text-decoration="undefined" x="266.4599609375" y="293.5" text-anchor="middle" dominant-baseline="central" transform="matrix(1 0 0 1 -230 -174)">Duck</text></g></g><g><path fill="none" stroke="#000000" paint-order="fill stroke markers" d=" M 35 105 L 35 56" stroke-miterlimit="10" stroke-dasharray=""/></g><g><path fill="#FFFFFF" stroke="none" paint-order="stroke fill markers" d=" M 43.419035512031996 76.32534971524831 L 35 56 L 26.580964487968004 76.32534971524831"/></g><g><path fill="none" stroke="#000000" paint-order="fill stroke markers" d=" M 43.419035512031996 76.32534971524831 L 35 56 L 26.580964487968004 76.32534971524831 L 43.419035512031996 76.32534971524831" stroke-miterlimit="10" stroke-dasharray=""/></g></g></svg>